<svg xmlns="http://www.w3.org/2000/svg" width="51" height="51" viewBox="0 0 51 51">
  <path id="Icon_awesome-arrow-circle-right" data-name="Icon awesome-arrow-circle-right" d="M26.063.563a25.5,25.5,0,1,1-25.5,25.5A25.5,25.5,0,0,1,26.063.563ZM23.091,15.328l7.763,7.444H12.079A2.462,2.462,0,0,0,9.611,25.24v1.645a2.462,2.462,0,0,0,2.468,2.468H30.854L23.091,36.8a2.471,2.471,0,0,0-.041,3.527l1.131,1.121a2.458,2.458,0,0,0,3.486,0L41.311,27.81a2.458,2.458,0,0,0,0-3.486L27.667,10.67a2.458,2.458,0,0,0-3.486,0L23.05,11.791a2.483,2.483,0,0,0,.041,3.537Z" transform="translate(-0.563 -0.563)" fill="#262626"/>
</svg>
