<?xml version="1.0" encoding="utf-8"?>
<!-- Generator: Adobe Illustrator 26.2.1, SVG Export Plug-In . SVG Version: 6.00 Build 0)  -->
<svg version="1.1" id="Ebene_1" xmlns="http://www.w3.org/2000/svg" xmlns:xlink="http://www.w3.org/1999/xlink" x="0px" y="0px"
	 viewBox="0 0 269.3 51" style="enable-background:new 0 0 269.3 51;" xml:space="preserve">
<style type="text/css">
	.st0{fill:#FFFFFF;}
</style>
<path class="st0" d="M24.4,17.8h-6v-4.4h17.3v4.4h-6.1v16.4h-5.1V17.8z M37.6,13.4h15.7v4.2H42.7v3.7h9.1v4h-9.1v4.4h10.8v4.4H37.6
	V13.4z M61.3,23.3L55,13.4h5.9l3.5,6h0.1l3.6-6h5.6l-6.2,9.8l6.9,10.9h-6.1l-3.9-7h-0.1l-4,7h-5.8L61.3,23.3z M80.7,17.8h-6v-4.4
	h17.3v4.4h-6.1v16.4h-5.1V17.8z M93.8,13.4h15.7v4.2H99v3.7h9.1v4H99v4.4h10.8v4.4H93.8V13.4z M112.1,13.4h9.9c4.1,0,7.3,2.1,7.3,6
	c0,2.4-1.2,4.2-3.6,5v0.1c1.8,0.6,2.7,1.7,3,3.8c0.4,2.7,0.1,5.3,0.9,5.6v0.3h-5c-0.6-0.3-0.5-2.8-0.8-4.8c-0.3-1.9-1.2-3-3.5-3
	h-3.1v7.8h-5.1V13.4z M121.1,22.6c2,0,3.1-1,3.1-2.5c0-1.5-1-2.6-3-2.6h-4v5.1H121.1z M132.7,13.4h1.9v11.1l11.2-11.1h2.5l-8.7,8.4
	l9.2,12.3h-2.3l-8.2-11l-3.7,3.7v7.3h-1.9V13.4z M149,23.8c0-6.2,3.8-10.8,9.6-10.8c5.9,0,9.7,4.6,9.7,10.8s-3.8,10.8-9.7,10.8
	C152.8,34.6,149,30,149,23.8z M166.4,23.8c0-5-2.7-9.1-7.7-9.1c-5,0-7.6,4-7.6,9.1s2.6,9.1,7.6,9.1
	C163.7,32.9,166.4,28.8,166.4,23.8z M172,13.4h1.9v19H185v1.8h-13V13.4z M186,23.8c0-6.2,3.8-10.8,9.6-10.8c5.9,0,9.7,4.6,9.7,10.8
	s-3.8,10.8-9.7,10.8C189.8,34.6,186,30,186,23.8z M203.3,23.8c0-5-2.7-9.1-7.7-9.1c-5,0-7.6,4-7.6,9.1s2.6,9.1,7.6,9.1
	C200.7,32.9,203.3,28.8,203.3,23.8z M209,13.4h2.1l9.6,14.6c1,1.6,2.1,3.4,2.1,3.4h0.1v-18h1.9v20.8h-2l-9.5-14.4
	c-1-1.5-2.2-3.5-2.2-3.5h-0.1v17.9H209V13.4z M229.2,13.4h1.9v20.8h-1.9V13.4z M235.7,13.4h14.1v1.7h-12.2v7.5h11.2v1.7h-11.2v8.1
	h12.5v1.8h-14.4V13.4z M138.7,40.1c0.2,0,0.1-0.2,0.2-0.2C138.5,39.9,138.7,40.2,138.7,40.1z M135.4,40.4L135.4,40.4l-0.4,0.1
	L135.4,40.4z M132.4,40.2c0.3,0.4,1.1,0,1.6,0.2l0.1,0.1l0.3-0.3C133.7,40.2,132.9,40.3,132.4,40.2z M130.9,39.3
	c0.1,0.1-0.4,0.1,0.4,0.1c0,0,0,0-0.1,0C131.1,39.3,131,39.3,130.9,39.3z M131.2,39.3C131.5,39.3,131,39.2,131.2,39.3L131.2,39.3z
	 M129.7,39.3l0.4-0.1c-0.1-0.1-0.5-0.1-0.3-0.2C129.4,39.1,129.5,39.1,129.7,39.3z M129.3,39.5l0.2,0
	C129.5,39.5,129.4,39.4,129.3,39.5z M130,39.4l-0.5,0.1c0.1,0.1,0.1,0.2,0.2,0C129.7,39.6,129.8,39.5,130,39.4z M130.2,39.5
	c0.2,0.1,0.5,0.2,0.1,0.3C131.1,39.7,131,39.5,130.2,39.5z M132.2,40.5l0.3,0.1l0.3-0.1C132.7,40.6,132.2,40.4,132.2,40.5z
	 M127.1,38.9c0,0.1,0.1,0.2,0.2,0.3l0.3-0.1C127.4,39.1,127.2,39.1,127.1,38.9z M127.3,39.3l-0.5,0.1
	C127.2,39.4,127.3,39.3,127.3,39.3z M129.2,39.9l0.8-0.2l-0.9,0.2L129.2,39.9z M125.4,38.8l0.3-0.2l-0.5,0.2L125.4,38.8z
	 M124.2,38.8c0.2-0.1-0.2-0.3,0-0.3c-0.3,0-0.6,0.1-0.8,0.2C123.6,38.6,123.9,38.6,124.2,38.8z M122.9,38.8c0.1,0,0.3-0.1,0.4-0.1
	C123.2,38.7,123.1,38.7,122.9,38.8z M126,39.3c0,0-0.1-0.2-0.3-0.2l0.2,0.2C125.9,39.3,126,39.3,126,39.3z M125.9,39.3L125.9,39.3
	c-0.2,0-0.3,0-0.4,0C125.5,39.2,125.6,39.2,125.9,39.3z M126.1,39.3L126.1,39.3C126.1,39.3,126.1,39.3,126.1,39.3z M128,39.6
	c-0.3,0.1-0.8,0.2-0.3,0.4C127.9,39.9,127.6,39.8,128,39.6z M126.3,39.6l0.5,0.1c0-0.1-0.1-0.1,0-0.2L126.3,39.6z M126.1,39.6
	l0.2-0.1L126.1,39.6L126.1,39.6z M123.7,39c-0.2,0.1-0.4,0.1-0.7,0.1c0.3,0.1,0.6,0.1,0.8,0.1C123.9,39.2,124,39,123.7,39z
	 M124.8,39.2L124.8,39.2C124.8,39.2,124.8,39.2,124.8,39.2z M120.5,38.9L120.5,38.9L120.5,38.9L120.5,38.9z M123.9,39.3
	c0.2,0.1,0.3,0,0.5,0C124.2,39.2,124,39.2,123.9,39.3C123.8,39.3,123.8,39.3,123.9,39.3z M122.2,38.8c0.1,0.1,0.2,0.1,0.4,0.1
	C122.4,38.9,122.2,38.8,122.2,38.8z M124.7,39.1L124.7,39.1C124.6,39.1,124.6,39.1,124.7,39.1z M124.7,39.1c-0.1,0-0.2,0.1-0.3,0.1
	C124.5,39.2,124.6,39.2,124.7,39.1C124.7,39.2,124.7,39.1,124.7,39.1z M119.6,40.3c0-0.2,0.6-0.3,1.1-0.1c0.5-0.1,0.2-0.8-0.2-1.2
	c0,0.1,0,0.2-0.5,0.3c0.2,0.1,1.1,0.3,0.6,0.5c-0.6,0.1-0.5-0.1-0.8-0.2c0.2,0.3-0.8,0.3-0.7,0.7l0.6-0.1
	C119.7,40.1,119.4,40.2,119.6,40.3z M121.4,39.1l0.2,0c-0.2,0-0.4-0.1-0.7-0.3c-0.3,0.1-0.4,0.1-0.4,0.2L121.4,39.1L121.4,39.1z
	 M122.5,39.1c-0.2,0.2-0.7,0.3-0.4,0.5c0.6,0,0.4-0.2,0.8-0.2C122,39.4,123.2,39.3,122.5,39.1c0.2,0,0.4,0,0.5,0
	c-0.2,0-0.3-0.1-0.5-0.1l0,0l0,0l0,0C122.6,39,122.6,39,122.5,39.1C122.6,39,122.6,39,122.5,39.1C122.5,39.1,122.5,39.1,122.5,39.1
	C122.2,39,122.5,39,122.5,39.1c0.1-0.1,0.1-0.1,0.1-0.1l0,0l-0.9,0.1C121.8,39.1,122.1,39.1,122.5,39.1z M127.2,40.5
	C127.1,40.5,127.1,40.5,127.2,40.5C127.1,40.5,127.1,40.5,127.2,40.5z M126.8,40.3c0.1,0,0.1-0.1,0.4-0.1c0.2,0.1,0,0.1,0,0.2
	c0.1,0,0.5-0.1,0.1-0.3l-0.1,0c-0.4-0.1-0.8-0.4-0.8-0.4C126.5,40,126.5,40.1,126.8,40.3z M124.6,39.8l-0.8,0.1l0.4,0.2l0-0.1
	C124.6,40,124.6,39.9,124.6,39.8z M120.4,38.8l0.1-0.2l-0.5,0.3L120.4,38.8z M119.4,38.8l0-0.2l-0.3,0.1L119.4,38.8z M61.7,39.4
	l-0.2,0.1C61.6,39.5,61.7,39.5,61.7,39.4z M63.4,39.4L63.4,39.4C63.4,39.4,63.3,39.4,63.4,39.4z M94.3,37.5
	c-0.3-0.2-0.7-0.5-0.7-0.3l0.1,0.2C94,37.4,94.1,37.5,94.3,37.5z M77.1,38.3L77.1,38.3c0.2,0,0.3-0.1,0.3-0.1
	C77.3,38.2,77.2,38.3,77.1,38.3z M76.8,39.2l-0.4-0.1C76.5,39.1,76.6,39.2,76.8,39.2z M52.7,39.9l-0.3,0.2
	C52.8,40.1,52.6,40,52.7,39.9z M108.9,38.3c-0.3-0.1-0.5-0.1-0.7-0.2C108.5,38.2,108.8,38.4,108.9,38.3z M62.4,37.1
	c-0.1,0-0.2,0.1-0.2,0.1C62.3,37.2,62.4,37.2,62.4,37.1z M107.4,38.1c0.1,0,0.1,0,0.2,0.1c0.2,0,0.4,0,0.7,0
	C107.9,38,107.6,37.9,107.4,38.1z M19.8,42.2C19.8,42.2,19.7,42.2,19.8,42.2C19.7,42.3,19.7,42.3,19.8,42.2z M9.9,41.5
	c0.1,0,0.2-0.1,0.4-0.1C10.3,41.4,10.1,41.4,9.9,41.5z M115.3,38.5C115.5,38.5,115.3,38.4,115.3,38.5L115.3,38.5z M116.3,39.4
	c0,0-0.1,0.1-0.1,0.1C116.2,39.4,116.2,39.4,116.3,39.4z M105.1,39.3L105.1,39.3C105.2,39.3,105.2,39.3,105.1,39.3z M115.6,38.6
	c-0.1,0-0.2-0.1-0.3-0.1C115.4,38.5,115.4,38.5,115.6,38.6z M115.5,38.5c0.1,0,0.1,0,0.2,0C115.8,38.5,115.7,38.4,115.5,38.5z
	 M115,38.4c0.1,0,0.2,0,0.3,0c0,0-0.1,0,0,0C115.2,38.5,115.1,38.5,115,38.4z M37.3,39.9C37.3,39.9,37.3,39.9,37.3,39.9
	C37.1,40,37.2,40,37.3,39.9z M88.6,39.6L88.6,39.6L88.6,39.6L88.6,39.6z M87.8,39.7c0.3-0.3,0.5-0.2,0.8-0.2l-0.2-0.6L87.8,39.7z
	 M57.8,39.6l0.5,0.2c-0.7,0.3-1.1,0.2-0.6,0.5c0.1-0.7,2.1-0.1,2.2-0.8l0.4,0.1c-0.1,0-0.1,0-0.2,0c0.7,0.3,0.5-0.5,1.4-0.4
	c0.3,0,0.5,0.1,0.3,0.2l0.7-0.2c0.2,0,0.2,0.1,0,0.1l1.1-0.1l0,0c0.2-0.1,0.5-0.3,0.7-0.4c0.3,0.1-0.1,0.1-0.1,0.2l0.6-0.2
	c0.2,0.2-0.2,0.3-0.7,0.3c0.6,0.7,0.5-0.2,1.7,0.2l-0.6,0.1c0.4,0.4,0.8,0.2,1.4,0.5c-0.1-0.1-1.3-0.6-0.6-0.8
	c0.2,0.1,0.4,0.1,0.8-0.1c0,0.2,0.3,0.2,0.8,0.2l0,0.3c0.5-0.1,0.4-0.3,0.7-0.4c0.5,0,0.6,0.3,0.7,0.5c0.8,0.1-0.6-0.4,0.4-0.5
	c0.7,0.1,1.2,0,2-0.2c0.5,0.1-0.1,0.2,0.1,0.3l0.4-0.3c0.1,0,0.1,0.1,0.1,0.1c0.4-0.1,0-0.3,0.6-0.4c0.2-0.4,1.1,0.5,1.8,0.1
	c0.2,0.1-0.1,0.2,0,0.3c0.9-0.2,0.8-0.2,1.6-0.5l0.7,0.2c-0.5-0.2,0.1-0.5,0.7-0.7c-0.2-0.1-0.3-0.2-0.4-0.3l0.9-0.2
	c0.1,0.1,0,0.2-0.1,0.3c0.1,0,0.1-0.1,0.2-0.1c0.3,0.1,0.1,0.3-0.1,0.5c-0.1-0.1-0.2-0.1-0.3-0.2c-0.2,0.2-0.4,0.4-0.4,0.6
	c0.1,0,0.2-0.1,0.3-0.1C77,39,77,39,77,39c0,0,0.1,0,0.3-0.1l0.2,0.4l0.1-0.1l1.1,0.2c0.8-0.3,1.5-0.9,2.8-1
	c-0.3,0.3-0.1,0.4-0.1,0.7c-0.3-0.3-1,0.1-1.7,0c0.3,0,0.3,0.2,0.2,0.2l1.2-0.3c0,0.3,0.2,0.2,0.6,0.3c-0.2-0.5,0.9-0.3,1.4-0.4
	c0,0.2-0.1,0.3-0.7,0.3c0.6,0.4,0.9-0.6,1.5-0.2c-0.1,0-0.2,0-0.3,0.1c0.3-0.1,1.2,0,1,0.1l-0.1,0c1,0.1,2.9,0.1,3.1-0.3
	c0,0.1-0.1,0.5-0.2,0.6l1.8-1.4c-0.2,0.4,0.4,1.2-0.4,1.4c0.2,0.1,0.5,0.1,1,0c-0.2-0.1-0.4-0.5-0.2-0.6c0.6,0.4,0.4,0.2,1.1,0.6
	c-0.2-0.1,0-0.6,0.4-0.6c-0.1,0.1,0,0.6-0.1,0.6l0.9-0.5c-0.2,0.1-0.1,0.5,0.1,0.6c-0.1-0.1,0.8,0,1,0l-0.4-0.1
	c1,0.1,1.1-0.8,2.1-0.7c-0.1,0.1-0.3,0.7,0.2,0.8c0.3-0.3,1.1-1.3,2-1.5l0.2,0.2l0.7-0.2c-0.5,0.4-1.7,1.3-2.4,1.6
	c0.4,0.1,0.1,0.2,0.7,0.2c0.2,0.2-0.3,0.2-0.5,0.2l1.3,0.2c0-0.3,1-0.3,1-0.6l-1.5,0.3c0-0.3,0.9-0.9,1.8-0.8
	c0.2,0.1-0.2,0.6-0.2,0.7c0.1-0.1,0.9-0.2,1-0.1L98.7,40c0.5,0.2,0.9-0.4,1.5-0.1c0.2,0,0.6,0.5,0.7,0.3c-0.3-0.4-0.4-1.6-0.1-1.9
	c0.1,0,1.1,0.4,1.4,0.6c0.4,0.3-0.6,0.7-0.3,1c0-0.1,0.2-0.2,0.3-0.2c0.2,0.1-0.1,0.3,0.4,0.3c0.1-0.3,1,0.1,0.3-0.3
	c0.5-0.1,0.5,0.1,1.1,0.1c-0.2-0.2,0.6-0.7,1.1-0.8c0,0.1,0.1,0.2,0.1,0.3c1,0.1,1.5,0.3,2.5,0.3c0.1,0.1,0.5,0.2,0.3,0.3
	c0.1-0.1,0.3-0.2,0.6-0.2c0.5,0.3-0.7,0-0.2,0.4c0-0.2,0.8-0.2,1.2-0.3c-0.1-0.3-1-0.1-1.4,0c0-0.4,0.8-0.8,1.8-1
	c0.8-0.1,0.3,0.3,0.5,0.2c1.5,0.2,1.3-0.7,2.5-0.3c0.5,0.3,0,0.5,0.1,0.7c-0.6,0.1-1-0.2-1.4-0.2l0.5,0.2c-0.2,0.1-0.6,0.1-0.9,0
	c0.4,0.3,2.5,0.2,3.6,0.5c0.2-0.1,0.6-0.1,0.4-0.3l-0.4,0c-0.3-0.2,0.7-0.3,0.2-0.4c0.5-0.1,1-0.3,1.7-0.2l0.1,0.3
	c0-0.1-0.4-0.2-0.6-0.1c0.3-0.1,1,0.5,1.4,0.1l-0.5-0.2c0.5-0.1,1.1-0.4,1.7-0.3c-0.3-0.3-0.1,0-0.5-0.4c0.3,0.5-1.5-0.1-1,0.4
	c-0.4-0.4-0.8-0.2-1.3-0.6c0,0.1,0.2,0.2-0.3,0.1c0,0-0.1,0.1-0.1,0.1c0,0,0,0,0,0l0,0c0,0,0,0,0,0c0.1,0.1,0.2,0.1,0.2,0.2
	c-0.3,0.2-1.1,0.2-1.3,0.3c-0.3-0.1,0.1-0.1,0-0.2l-0.4,0.2c0-0.2-0.8-0.4-0.1-0.5l-0.6,0c-0.4-0.1-0.9-0.2-1.2-0.1
	c-0.3-0.1-0.8,0.2-0.5,0l-1,0.1l0-0.1c-1-0.1-2,0.3-3.2-0.2c-0.3,0-0.7,0.1-1.2,0l-0.1-0.2c-0.4,0-1.3-0.3-1.5-0.1
	c-0.4-0.5-2.1-0.2-2.8-0.3l0,0.3c-0.5,0-1,0-1.7,0.1l0,0.2c-0.6,0.2-1.4-0.2-2.3-0.2c0.1-0.1,0.3,0,0.4,0c-1-0.6-2.2,0.3-3.1-0.1
	c-0.2,0.1-0.4,0-0.6,0c0,0,0,0,0.1,0c0,0-0.1,0-0.1,0c-0.1,0-0.2-0.1-0.3-0.1c0.1,0.1,0.2,0.1,0.3,0.1c-0.2,0-0.5,0-0.7,0.1
	l-0.1-0.2c0,0,0,0-0.1,0c-0.3-0.1-0.2,0.1-0.1,0.3c-0.1,0-0.3,0.1-0.4,0.1c-0.2-0.4-0.7,0.1-1-0.3c-0.2,0.2-1.4,0.1-1.5,0.5
	c0-0.1-0.1-0.1,0.1-0.1c-0.3-0.1-0.6-0.1-0.9,0l-0.1-0.3l-0.7,0.4c-0.4-0.2-0.6-0.3-0.2-0.5c-1,0.3-0.8,0.1-1.6,0.5l0-0.2
	c-0.3,0-0.8,0.3-0.9,0.1c-0.6-0.4-3.2-0.1-4.9-0.5c0.3,0.6-0.8-0.3-0.8,0.2c-0.1-0.1-0.3-0.2-0.1-0.3c-0.9,0.1-1.3-0.2-1.9,0.1
	c-0.1-0.1,0.2-0.2,0.1-0.3c-0.1,0-0.3,0.1-0.4,0c-0.1-0.1,0.1-0.1,0.3-0.2c-0.9,0-1,0.4-1,0.8c-0.4-0.2-0.7-0.2-1,0.1
	c-0.2-0.1-0.4-0.3,0.1-0.3c-0.3,0-1.9-0.2-1.9,0.1c-0.1-0.1-0.4,0-0.5,0c-0.7,0-0.7-0.1-1.4,0l0.2,0.1c-0.3,0.4-0.6,0.1-1.1,0.1l0,0
	c-1.2-0.3-0.5,0.1-1.8-0.2l0.1,0.2c-0.1,0.5-1.1-0.3-1.8-0.1l0.3,0.1c-0.4,0.2-1.1-0.7-1.5-0.8c-0.1,0,0.1-0.1,0.3-0.1
	c-1-0.3-0.1,0.3-0.9,0.4c-0.1-0.2,0.2-0.4-0.3-0.5c-0.3-0.1-1.5,0.5-2.2,0.2c0.2,0.1,0.3,0.3,0,0.4c-0.5,0.1-1.5-0.5-2-0.1
	c-0.1,0-0.1-0.1-0.1-0.1c-0.4,0.1-1.3,0.2-1.6,0.4c-0.4-0.8-2.6,0.4-2.6-0.3l-1.3,0.1l0-0.1c-0.8,0-1.1,0.2-1.4,0.3
	c-0.2,0-0.1-0.1,0-0.2c-1.2-0.1-1.3-0.1-2.3,0.3l-0.1-0.2c-0.3,0.2-1.7-0.3-2.9,0c0,0,0-0.1,0.1-0.1c-1.3,0.3-3.2-0.6-3.6,0.4
	l-0.9,0.3c1.1,0-0.1,0.4,0.3,0.5c-0.4,0.1-1.2-0.2-0.6-0.3l0.1,0c0.2-0.5-1.4-0.1-1.4-0.4c-2.2,0.2-4.4,0-6.4,0.1l0.3,0.3l-0.7,0
	c-0.2-0.1-0.3-0.3,0.2-0.3c-0.3-0.2-0.8,0.2-0.9,0.3c-1-0.1,0.4-0.5,0.1-0.4l-0.4,0.1l0.1,0c-0.3,0.2-0.3,0.3-1,0.4
	c-0.4,0-0.2-0.2-0.4-0.2c0,0-0.1,0-0.2,0l-0.9,0l0.4,0.3c-0.4,0.2-0.9,0.1-0.4,0.3c-0.7-0.5-3.4,0.1-3.8,0c-0.5,0.3-1.1,0.3-1.8,0.4
	c0.2,0,0.3,0.4-0.3,0.4c0.1-0.7-1.1-0.2-1.6-0.6c0.5,0.3-1.7,0.3-1,0.6c-0.5,0-0.1-0.2-0.4-0.4c-1.2,0.4-2.6,0.1-4.1,0.4
	c0,0.1,0.2,0.2,0,0.4L20,39.8c-0.3,0.1-0.2,0.5-0.8,0.3c0.1,0.1,0.2,0.2,0,0.2c-1.4,0-2.9,0.2-4.3,0.5c-1.4,0.3-2.9,0.5-4.4,0.3
	c0.4,0.1,0.2,0.2-0.1,0.2c0.2,0,0,0.2,0.1,0.3l-1.3-0.1c-0.2,0.4-1.3,0.2-1.4,0.6L8.2,42C7.7,42.5,9,42.7,9,43.2
	c0.5-0.5,1.6,0.4,2.4-0.4c0.2,0.1-0.2,0.2,0,0.3c0.2-0.2,0.5-0.3,1-0.3l-0.1,0.1c1.5-0.3,2.1-0.2,3.8-0.3L16,42.3
	c0.4,0,0.4,0,0.6,0.1c0.4-0.4-1,0.1-0.7-0.3c0.5,0.4,2.5-0.3,2.9,0.2c0.6-0.1-0.2-0.3,0.4-0.3l0.2,0.1l0.1-0.2
	c0.4,0,0.6,0.1,0.6,0.3c-0.1,0-0.2,0.1-0.3,0.1c0.5,0.1,1.3-0.2,1.5-0.2l-0.5,0c1.5-0.3,3.3-0.4,4.8-0.8l-0.1-0.1
	c1.1-0.3,0.9,0,2.1-0.2l0,0c0.2-0.1,0.6-0.2,0.9-0.2c-0.3,0.2,0.6,0.2,0.2,0.4c1.2-0.3,0.6-0.2,1.3-0.7l0.2,0.2
	c0.3-0.2,0.3-0.3,0.9-0.4c-0.5,0.2,0.4,0.2-0.1,0.5c1.3,0.3,1.9-0.6,2.5,0c0.5-0.6-1.1-0.2-0.8-0.3c-0.3-0.1,0.5-0.4,0.9-0.4
	c0.4,0,0.8,0.6,1.8,0.5c-0.1,0-0.1,0-0.2,0.1c0.4,0.1,0.7-0.2,1.2-0.1c0.2-0.3,0.6,0,0.7-0.4l-0.9,0.2c0.5-0.1,1-0.6,1.9-0.5
	c-0.1,0.1-0.3,0.2-0.5,0.3c0.3,0.1,0.5-0.1,0.8,0c0,0.4-1.1,0.2-1.7,0.5c0.3,0.1,1.1-0.4,0.8,0.1c0.4-0.6,1,0,1.7-0.5l0,0.2
	c0.1,0,0.3-0.2,0.5-0.2L39,40.4c0.5-0.3,1.1,0.2,1.6,0c-1.1,0.1-0.3-0.3-0.8-0.4c1.4-0.4,0.8,0.6,2.4,0.4c-0.2,0-0.8-0.1-0.5-0.2
	c0.3,0,0.7,0.1,0.9,0.2c1-0.1-0.2-0.2,0.3-0.4c0.4,0.3,0.5-0.1,1-0.3l0,0.2c1.2,0.1,0.3-0.5,1.4-0.4l-0.4,0.4l0.6-0.1L45.3,40
	c0.6-0.2,0.8-0.2,1.4-0.1c-0.1-0.2,0.1-0.4,0.6-0.5c0.4,0.1-0.2,0.2,0.6,0.2c-0.2,0.2-0.3,0.4-0.7,0.2c0,0.1-0.2,0.2-0.2,0.2
	c0.4,0.1,1,0,1.2,0c-0.1,0-0.2,0-0.3,0l1.1-0.4c0.2,0.1,0,0.2-0.1,0.2c0.2,0,0.4-0.1,0.7-0.2c-0.1,0.2,0,0.4-0.5,0.5l1-0.3
	c0.1,0.1,0.5,0.2,0.4,0.3c0.6,0.1,1.4-0.4,2.1-0.3c0,0,0.1-0.1,0.3-0.1c0.7,0,1.3,0.2,2.2-0.1l0.5,0.3c0.7-0.1-0.7-0.4,0.4-0.6
	c0.8-0.1,0.3,0.3,0.6,0.4c0.4-0.2,1-0.6,1.8-0.3C58.2,39.6,58,39.5,57.8,39.6z M65.9,39.3c-0.2,0.1-0.5,0.2-0.6,0.1
	C65.5,39.1,65.6,39.2,65.9,39.3z M78.3,38.8c-0.1,0.1-0.3,0-0.5-0.1C77.9,38.7,78.1,38.7,78.3,38.8z M112.9,38.5L112.9,38.5
	C112.5,38.4,112.6,38.5,112.9,38.5z M113.6,38.7C113.7,38.6,113.7,38.6,113.6,38.7c0,0-0.2,0-0.4-0.1
	C113.3,38.7,113.4,38.7,113.6,38.7z M34.9,38.5l0.1,0.1C34.7,38.6,34.8,38.5,34.9,38.5z M76.9,39.1c0,0-0.1-0.1-0.1-0.1
	C76.7,39,76.7,39.1,76.9,39.1z M52.7,39.8L52.7,39.8C52.7,39.8,52.7,39.9,52.7,39.8L52.7,39.8z M102.2,40.1c-0.1,0-0.2-0.1-0.3-0.1
	C101.9,40,101.9,40.1,102.2,40.1z M117.5,38.5l-0.5,0c0.2,0,0.3,0.1,0.4,0.1C117.4,38.6,117.4,38.5,117.5,38.5z M121.5,40.2
	c0.1,0,0.1,0,0.2,0l0-0.1C121.4,40.1,121.2,40.2,121.5,40.2z M117.9,39.3c0,0.2,0.3,0.2,0.7,0.1c0,0,0,0-0.1,0
	C118.6,39.2,118.2,39.2,117.9,39.3z M118.6,39.4c0.1,0,0.2,0,0.3,0C119,39.3,118.8,39.4,118.6,39.4z M114.5,38.6
	c0.2,0.1,0.1-0.3,0.2-0.2C114.9,38.2,113.7,38.7,114.5,38.6z M118.1,40l-0.1-0.3l-0.2,0.2L118.1,40z M115.5,39.7l0.5,0.1
	c0,0,0.1-0.1,0.1-0.1C115.9,39.6,115.5,39.6,115.5,39.7z M116.2,39.7c0.2,0,0.3,0,0.4,0C116.5,39.7,116.3,39.7,116.2,39.7z
	 M117.4,40l-0.2-0.1l-0.4,0L117.4,40z M109.9,39.3l-0.6,0c-0.1,0.1,0.1,0.1,0.3,0.1C109.8,39.4,110,39.4,109.9,39.3z M111.6,40.1
	c-0.2-0.1-0.2-0.1-0.2-0.2l0,0.3L111.6,40.1z M109.9,40c-0.1,0.1-0.8,0.2-0.1,0.2C109.9,40.2,110.4,40.1,109.9,40z M101.3,39.2
	l0.1,0l0-0.5L101.3,39.2z M93.7,40.1c0.7,0.1,0.2-0.3,0.8-0.1c0.2-0.1-0.5-0.1-0.3-0.2C93.7,39.8,93.5,39.8,93.7,40.1z M94.1,39.7
	c0.1,0,0.1,0,0.2-0.1C94.2,39.7,94.2,39.7,94.1,39.7z M8.3,41.4l-0.5,0l0.3,0.1L8.3,41.4z M7.5,41.9l-0.2-0.3L7.2,42
	C7.3,41.9,7.5,41.9,7.5,41.9z M67.1,40L67.1,40c0-0.2-0.1-0.2-0.3-0.2L67.1,40z M61.2,39.8l0.1,0l-0.2-0.3L61.2,39.8z M56.3,40.2
	c0.2,0,0.4-0.1,0.6-0.1C56.5,40.2,56.2,39.9,56.3,40.2z"/>
</svg>
